# xmcd
#
# Track frame offsets: 
#        150
#        11491
#        25674
#        36731
#        50429
#        64305
#        77683
#        91263
#        104001
#        119002
#        132534
#        145876
#        160379
#        173816
#        185075
#        197623
#        211108
#        224900
#        236718
#
# Disc length: 3342 seconds
#
# Revision: 3
# Processed by: cddbd v1.5.2PL0 Copyright (c) Steve Scherf et al.
# Submitted via: ExactAudioCopy v1.0b3
#
DISCID=250d0c13
DTITLE=Woody Herman - Woody Herman (Quadromania)_CD1
DYEAR=2005
DGENRE=Jazz
TTITLE0=I Double Dare You
TTITLE1=Why Talk About Love
TTITLE2=My Find Feathered Friend
TTITLE3=Youre a Sweetheart
TTITLE4=Lets Pitch a Little Woo
TTITLE5=I Wanna Be in Winchells Column
TTITLE6=Loch Lomond (Trad.)
TTITLE7=Broadways Gone Hawaii
TTITLE8=Calliope Blues
TTITLE9=Twin City Blues
TTITLE10=Carolina in the Morning
TTITLE11=Saving Myself For You
TTITLE12=Laughing Boy Blues
TTITLE13=The Flat Foot Floogie
TTITLE14=Lullaby in Rhythm
TTITLE15=Dont Wake Up My Heart
TTITLE16=Blue Evening
TTITLE17=River Bed Blues
TTITLE18=Indian Boogie Woogie
EXTD=
EXTT0=
EXTT1=
EXTT2=
EXTT3=
EXTT4=
EXTT5=
EXTT6=
EXTT7=
EXTT8=
EXTT9=
EXTT10=
EXTT11=
EXTT12=
EXTT13=
EXTT14=
EXTT15=
EXTT16=
EXTT17=
EXTT18=
PLAYORDER=
